<mxfile host="Electron" modified="2024-06-02T12:09:53.513Z" agent="Mozilla/5.0 (Windows NT 10.0; Win64; x64) AppleWebKit/537.36 (KHTML, like Gecko) draw.io/24.0.4 Chrome/120.0.6099.109 Electron/28.1.0 Safari/537.36" etag="QysPRQBU6stSSvvSg1T3" version="24.0.4" type="device">
  <diagram name="Page-1" id="jPgxddGqbm7PC9ui0PFc">
    <mxGraphModel dx="1665" dy="982" grid="1" gridSize="10" guides="1" tooltips="1" connect="1" arrows="1" fold="1" page="1" pageScale="1" pageWidth="827" pageHeight="1169" math="0" shadow="0">
      <root>
        <mxCell id="0" />
        <mxCell id="1" parent="0" />
        <mxCell id="Ro9t4QKdTZBXGumT9-lZ-5" style="edgeStyle=orthogonalEdgeStyle;rounded=0;orthogonalLoop=1;jettySize=auto;html=1;endArrow=diamondThin;endFill=0;endSize=12;entryX=0.5;entryY=0;entryDx=0;entryDy=0;" parent="1" source="Ro9t4QKdTZBXGumT9-lZ-1" target="Ro9t4QKdTZBXGumT9-lZ-2" edge="1">
          <mxGeometry relative="1" as="geometry">
            <mxPoint x="120" y="260" as="targetPoint" />
            <Array as="points">
              <mxPoint x="120" y="220" />
            </Array>
          </mxGeometry>
        </mxCell>
        <mxCell id="Ro9t4QKdTZBXGumT9-lZ-1" value="Text" style="rounded=0;whiteSpace=wrap;html=1;fillColor=#1ba1e2;fontColor=#ffffff;strokeColor=#006EAF;" parent="1" vertex="1">
          <mxGeometry x="80" y="200" width="80" height="40" as="geometry" />
        </mxCell>
        <mxCell id="Ro9t4QKdTZBXGumT9-lZ-22" style="edgeStyle=orthogonalEdgeStyle;rounded=0;orthogonalLoop=1;jettySize=auto;html=1;endArrow=diamondThin;endFill=0;endSize=12;" parent="1" source="Ro9t4QKdTZBXGumT9-lZ-2" target="Ro9t4QKdTZBXGumT9-lZ-19" edge="1">
          <mxGeometry relative="1" as="geometry" />
        </mxCell>
        <mxCell id="Ro9t4QKdTZBXGumT9-lZ-27" style="edgeStyle=orthogonalEdgeStyle;rounded=0;orthogonalLoop=1;jettySize=auto;html=1;endArrow=diamondThin;endFill=0;endSize=12;" parent="1" source="Ro9t4QKdTZBXGumT9-lZ-2" target="Ro9t4QKdTZBXGumT9-lZ-3" edge="1">
          <mxGeometry relative="1" as="geometry" />
        </mxCell>
        <mxCell id="Ro9t4QKdTZBXGumT9-lZ-44" style="edgeStyle=orthogonalEdgeStyle;rounded=0;orthogonalLoop=1;jettySize=auto;html=1;endArrow=diamondThin;endFill=0;endSize=12;" parent="1" source="Ro9t4QKdTZBXGumT9-lZ-2" target="Ro9t4QKdTZBXGumT9-lZ-42" edge="1">
          <mxGeometry relative="1" as="geometry" />
        </mxCell>
        <mxCell id="Ro9t4QKdTZBXGumT9-lZ-2" value="TextReaderUse" style="rounded=0;whiteSpace=wrap;html=1;fillColor=#f8cecc;strokeColor=#b85450;" parent="1" vertex="1">
          <mxGeometry x="60" y="280" width="120" height="40" as="geometry" />
        </mxCell>
        <mxCell id="Ro9t4QKdTZBXGumT9-lZ-46" style="edgeStyle=orthogonalEdgeStyle;rounded=0;orthogonalLoop=1;jettySize=auto;html=1;endSize=12;endArrow=diamondThin;endFill=0;" parent="1" source="Ro9t4QKdTZBXGumT9-lZ-3" target="Ro9t4QKdTZBXGumT9-lZ-42" edge="1">
          <mxGeometry relative="1" as="geometry">
            <Array as="points">
              <mxPoint x="440" y="300" />
              <mxPoint x="440" y="460" />
            </Array>
          </mxGeometry>
        </mxCell>
        <mxCell id="Ro9t4QKdTZBXGumT9-lZ-3" value="&lt;div&gt;&amp;lt;&amp;lt;interface&amp;gt;&amp;gt;&lt;/div&gt;TextSearchPatternUse" style="rounded=0;whiteSpace=wrap;html=1;fillColor=#f8cecc;strokeColor=#b85450;" parent="1" vertex="1">
          <mxGeometry x="220" y="280" width="120" height="40" as="geometry" />
        </mxCell>
        <mxCell id="Ro9t4QKdTZBXGumT9-lZ-20" style="edgeStyle=orthogonalEdgeStyle;rounded=0;orthogonalLoop=1;jettySize=auto;html=1;dashed=1;" parent="1" source="Ro9t4QKdTZBXGumT9-lZ-18" target="Ro9t4QKdTZBXGumT9-lZ-19" edge="1">
          <mxGeometry relative="1" as="geometry" />
        </mxCell>
        <mxCell id="Ro9t4QKdTZBXGumT9-lZ-45" style="edgeStyle=orthogonalEdgeStyle;rounded=0;orthogonalLoop=1;jettySize=auto;html=1;endSize=12;endArrow=diamondThin;endFill=0;" parent="1" source="Ro9t4QKdTZBXGumT9-lZ-18" target="Ro9t4QKdTZBXGumT9-lZ-42" edge="1">
          <mxGeometry relative="1" as="geometry">
            <Array as="points">
              <mxPoint x="-40" y="460" />
            </Array>
          </mxGeometry>
        </mxCell>
        <mxCell id="Ro9t4QKdTZBXGumT9-lZ-18" value="TextTerminalReader" style="rounded=0;whiteSpace=wrap;html=1;fillColor=#60a917;strokeColor=#2D7600;fontColor=#ffffff;" parent="1" vertex="1">
          <mxGeometry x="-100" y="360" width="120" height="40" as="geometry" />
        </mxCell>
        <mxCell id="Ro9t4QKdTZBXGumT9-lZ-19" value="&lt;div&gt;&amp;lt;&amp;lt;interface&amp;gt;&amp;gt;&lt;/div&gt;TextReaderInput" style="rounded=0;whiteSpace=wrap;html=1;fillColor=#f8cecc;strokeColor=#b85450;" parent="1" vertex="1">
          <mxGeometry x="-100" y="280" width="120" height="40" as="geometry" />
        </mxCell>
        <mxCell id="Ro9t4QKdTZBXGumT9-lZ-39" style="edgeStyle=orthogonalEdgeStyle;rounded=0;orthogonalLoop=1;jettySize=auto;html=1;dashed=1;" parent="1" source="Ro9t4QKdTZBXGumT9-lZ-38" target="Ro9t4QKdTZBXGumT9-lZ-3" edge="1">
          <mxGeometry relative="1" as="geometry">
            <mxPoint x="280" y="399.9999999999999" as="targetPoint" />
          </mxGeometry>
        </mxCell>
        <mxCell id="Ro9t4QKdTZBXGumT9-lZ-38" value="BrutAlgo&lt;div&gt;&lt;/div&gt;" style="rounded=0;whiteSpace=wrap;html=1;fillColor=#60a917;strokeColor=#2D7600;fontColor=#ffffff;" parent="1" vertex="1">
          <mxGeometry x="140" y="360" width="120" height="40" as="geometry" />
        </mxCell>
        <mxCell id="Ro9t4QKdTZBXGumT9-lZ-41" style="edgeStyle=orthogonalEdgeStyle;rounded=0;orthogonalLoop=1;jettySize=auto;html=1;dashed=1;" parent="1" source="Ro9t4QKdTZBXGumT9-lZ-40" target="Ro9t4QKdTZBXGumT9-lZ-3" edge="1">
          <mxGeometry relative="1" as="geometry" />
        </mxCell>
        <mxCell id="Ro9t4QKdTZBXGumT9-lZ-40" value="MorrisPrattAlgo&lt;div&gt;&lt;/div&gt;" style="rounded=0;whiteSpace=wrap;html=1;fillColor=#60a917;strokeColor=#2D7600;fontColor=#ffffff;" parent="1" vertex="1">
          <mxGeometry x="300" y="360" width="120" height="40" as="geometry" />
        </mxCell>
        <mxCell id="Ro9t4QKdTZBXGumT9-lZ-51" style="edgeStyle=orthogonalEdgeStyle;rounded=0;orthogonalLoop=1;jettySize=auto;html=1;endArrow=none;endFill=0;startArrow=diamondThin;startFill=0;startSize=12;" parent="1" source="Ro9t4QKdTZBXGumT9-lZ-42" target="Ro9t4QKdTZBXGumT9-lZ-47" edge="1">
          <mxGeometry relative="1" as="geometry">
            <Array as="points">
              <mxPoint x="520" y="460" />
            </Array>
          </mxGeometry>
        </mxCell>
        <mxCell id="Ro9t4QKdTZBXGumT9-lZ-42" value="Main&lt;div&gt;&lt;/div&gt;" style="rounded=0;whiteSpace=wrap;html=1;fillColor=#60a917;strokeColor=#2D7600;fontColor=#ffffff;" parent="1" vertex="1">
          <mxGeometry x="60" y="440" width="120" height="40" as="geometry" />
        </mxCell>
        <mxCell id="Ro9t4QKdTZBXGumT9-lZ-48" style="edgeStyle=orthogonalEdgeStyle;rounded=0;orthogonalLoop=1;jettySize=auto;html=1;endSize=12;endArrow=none;endFill=0;startSize=12;startArrow=diamondThin;startFill=0;" parent="1" source="Ro9t4QKdTZBXGumT9-lZ-47" target="Ro9t4QKdTZBXGumT9-lZ-2" edge="1">
          <mxGeometry relative="1" as="geometry">
            <Array as="points">
              <mxPoint x="540" y="260" />
              <mxPoint x="160" y="260" />
            </Array>
          </mxGeometry>
        </mxCell>
        <mxCell id="Ro9t4QKdTZBXGumT9-lZ-47" value="&lt;div&gt;&amp;lt;&amp;lt;interface&amp;gt;&amp;gt;&lt;/div&gt;TextDisplayUse" style="rounded=0;whiteSpace=wrap;html=1;fillColor=#f8cecc;strokeColor=#b85450;" parent="1" vertex="1">
          <mxGeometry x="480" y="280" width="120" height="40" as="geometry" />
        </mxCell>
        <mxCell id="Ro9t4QKdTZBXGumT9-lZ-50" style="edgeStyle=orthogonalEdgeStyle;rounded=0;orthogonalLoop=1;jettySize=auto;html=1;dashed=1;" parent="1" source="Ro9t4QKdTZBXGumT9-lZ-49" target="Ro9t4QKdTZBXGumT9-lZ-47" edge="1">
          <mxGeometry relative="1" as="geometry">
            <Array as="points">
              <mxPoint x="620" y="340" />
              <mxPoint x="560" y="340" />
            </Array>
          </mxGeometry>
        </mxCell>
        <mxCell id="Ro9t4QKdTZBXGumT9-lZ-49" value="TerminalDisplay&lt;div&gt;&lt;/div&gt;" style="rounded=0;whiteSpace=wrap;html=1;fillColor=#60a917;strokeColor=#2D7600;fontColor=#ffffff;" parent="1" vertex="1">
          <mxGeometry x="560" y="360" width="120" height="40" as="geometry" />
        </mxCell>
      </root>
    </mxGraphModel>
  </diagram>
</mxfile>
